<?xml version="1.0" standalone="no"?>
<!DOCTYPE svg PUBLIC "-//W3C//DTD SVG 1.1//EN" "http://www.w3.org/Graphics/SVG/1.1/DTD/svg11.dtd" >
<svg xmlns="http://www.w3.org/2000/svg">
<metadata>
This is a custom SVG webfont generated by Font Squirrel.
Copyright   : Copyright c 2009 by APage  RML Types All rights reserved
Designer    : APage  RML Types
Foundry     : APage  RML Types
</metadata>
<defs>
<font id="EniExpLightRegular" horiz-adv-x="1046" >
<font-face units-per-em="2048" ascent="1608" descent="-440" />
<missing-glyph horiz-adv-x="471" />
<glyph unicode=" "  horiz-adv-x="471" />
<glyph unicode="&#x09;" horiz-adv-x="471" />
<glyph unicode="&#xa0;" horiz-adv-x="471" />
<glyph unicode="!" horiz-adv-x="458" d="M160 55.5q0 28.5 20.5 49t49 20.5t49 -21.5t20.5 -48.5q0 -29 -20.5 -49t-49 -20t-49 20.5t-20.5 49zM186 350v965l86 41v-1006h-86z" />
<glyph unicode="&#x22;" horiz-adv-x="428" d="M82 1085q49 160 51 263l86 8q0 -127 -51 -281zM209 1075q49 152 49 273l88 8q0 -133 -49 -291z" />
<glyph unicode="#" horiz-adv-x="1255" d="M82 328l24 86h271l24 245h-313l25 86h297l30 299l88 41l-32 -340h264l31 299l88 41l-33 -340h328l-44 -86h-294l-23 -245h354l-41 -86h-321l-33 -328h-88l35 328h-264l-33 -328h-88l35 328h-287zM463 414h264l25 245h-267z" />
<glyph unicode="$" horiz-adv-x="1038" d="M123 1036v4q0 123 100.5 209t268.5 99v227l94 47v-272q150 -12 282 -84l-16 -99q-45 33 -134 61.5t-171 28.5q-147 0 -239.5 -61t-92.5 -149q0 -119 160 -216l340 -200q201 -121 200 -336v-8q-4 -121 -85.5 -204t-243.5 -91v-234h-92v234q-170 6 -334 74l-15 108 q193 -90 408 -90q125 0 194.5 65.5t69.5 159.5v2q0 72 -45 140.5t-129 117.5l-324 185q-194 108 -196 282z" />
<glyph unicode="%" horiz-adv-x="1484" d="M102 979q0 190 55.5 283.5t184.5 93.5t184.5 -92.5t55.5 -282.5q0 -174 -53.5 -268.5t-184.5 -91.5q-242 0 -242 358zM188 981q0 -152 38 -213t118 -61t117 60t37 214v-2q0 170 -38 230.5t-118 60.5t-117 -59.5t-37 -229.5zM233 -23l908 1362l106 17l-905 -1372zM901 344 q0 190 55.5 283.5t184.5 93.5t185 -92t56 -283q0 -172 -53 -267t-184 -93q-244 0 -244 358zM987 346q0 -152 38 -213t118 -61t116.5 60.5t36.5 211.5q0 170 -36.5 230.5t-116.5 60.5t-118 -59.5t-38 -229.5z" />
<glyph unicode="&#x26;" horiz-adv-x="1396" d="M143 295q4 217 322 391q-252 209 -252 389q0 113 86 181.5t242 68.5q172 0 252.5 -70.5t80.5 -179.5q0 -63 -21.5 -119.5t-69.5 -109.5t-81.5 -82t-99.5 -82l406 -379l243 201v-115l-180 -147l244 -242h-125l-189 186q-133 -109 -239.5 -162t-224.5 -53q-172 0 -284 93.5 t-110 230.5zM240 291q0 -98 84 -164t211 -66q145 0 284 99l119 88l-408 381q-115 -61 -202.5 -148.5t-87.5 -189.5zM301 1069q0 -131 236 -330q244 174 243 338v-2q-2 68 -60 115t-179 47q-119 0 -179.5 -49t-60.5 -119z" />
<glyph unicode="'" horiz-adv-x="299" d="M82 1079q45 152 49 269l86 8q0 -141 -49 -285z" />
<glyph unicode="(" horiz-adv-x="552" d="M121 612.5q0 270.5 93 471t243 323.5l32 -98q-274 -264 -274 -695q0 -233 76 -430.5t201 -300.5l-19 -110q-158 117 -255 343t-97 496.5z" />
<glyph unicode=")" horiz-adv-x="552" d="M61 -117q125 102 201 300t76 431q0 430 -275 695l33 98q150 -123 243 -323.5t93 -471t-97 -497t-255 -342.5z" />
<glyph unicode="*" horiz-adv-x="925" d="M61 946l13 82h317l-166 287l78 31l160 -277l166 287l63 -51l-160 -277h332l-12 -82h-320l166 -287l-75 -30l-160 276l-166 -287l-64 52l160 276h-332z" />
<glyph unicode="+" horiz-adv-x="1249" d="M82 483l22 88h486v459l86 41v-500h491l-41 -86h-448v-499h-88v497h-508z" />
<glyph unicode="," horiz-adv-x="245" d="M-61 -399q78 100 126 246.5t52 258.5l88 9h-2q0 -137 -54.5 -292t-117.5 -231z" />
<glyph unicode="-" horiz-adv-x="667" d="M82 473l22 88h482l-41 -88h-463z" />
<glyph unicode="." horiz-adv-x="280" d="M82 55.5q0 28.5 20.5 48t49 19.5t48 -20.5t19.5 -47.5q0 -29 -19.5 -49t-48 -20t-49 20.5t-20.5 49z" />
<glyph unicode="/" horiz-adv-x="671" d="M82 -14l412 1355l96 17l-412 -1368z" />
<glyph unicode="0" horiz-adv-x="1169" d="M143 647q0 371 103.5 540t341.5 169q236 0 337 -168t101 -541q0 -332 -98.5 -496.5t-339.5 -164.5q-240 0 -342.5 164.5t-102.5 496.5zM236 647q0 -307 83.5 -438t268 -131t264.5 129t80 440q0 350 -81 483.5t-263 133.5t-267 -134.5t-85 -482.5z" />
<glyph unicode="1" horiz-adv-x="591" d="M20 1325q98 16 183 16q117 0 205 -22v-1319h-93v1239q-47 8 -106 8q-88 0 -176 -14z" />
<glyph unicode="2" horiz-adv-x="1052" d="M123 125q29 92 111.5 187.5t178 174t188.5 158.5t154.5 172t61.5 187q0 125 -85 192.5t-214 67.5q-195 0 -356 -105l-12 101q168 96 368 96q168 0 280.5 -94.5t112.5 -257.5q0 -113 -62.5 -216.5t-154.5 -185.5t-188 -157.5t-179 -162.5t-112 -171v-17h735l-16 -94h-795z " />
<glyph unicode="3" horiz-adv-x="1042" d="M102 1341h729q29 0 37.5 -7t5.5 -29l-6 -45l-458 -429h30q199 0 330 -119.5t129 -314.5q-2 -168 -121 -289.5t-329 -121.5q-174 0 -324 59l-21 113q178 -82 332 -82q166 0 268.5 89t102.5 236q0 90 -34 157t-94.5 104.5t-130 55t-149.5 17.5q-55 0 -133 -12l-14 86 l469 440h-600z" />
<glyph unicode="4" horiz-adv-x="970" d="M61 412v82q0 47 33 98l498 749h106l-510 -776q-23 -33 -28 -61h473v325l92 43v-366h215l-51 -94h-162v-412h-94v412h-572z" />
<glyph unicode="5" horiz-adv-x="1034" d="M123 172q145 -94 330 -94q154 0 259 95t105 269q0 131 -91 224.5t-249 93.5q-129 0 -311 -70l-12 88l141 563h594l-19 -92h-501l-107 -428q111 31 215 31q186 0 310 -117t124 -291q0 -221 -133 -339.5t-327 -118.5q-164 0 -308 71z" />
<glyph unicode="6" horiz-adv-x="1140" d="M123 528q0 375 182 601.5t549 226.5l-23 -92q-260 -8 -410.5 -150.5t-191.5 -402.5q135 174 379 174q186 0 298 -122t112 -312q0 -195 -119 -330t-311 -135q-225 0 -345 155.5t-120 386.5zM217 492q10 -180 103.5 -297t265.5 -117q152 0 245 107.5t93 263.5h2 q0 147 -85 244.5t-231 97.5q-156 0 -262 -85t-131 -214z" />
<glyph unicode="7" horiz-adv-x="862" d="M0 1341h805q57 0 57 -55v-84q-330 -510 -616 -1202h-101q322 756 623 1227l-2 20h-752z" />
<glyph unicode="8" horiz-adv-x="1191" d="M143 389q0 133 65.5 226.5t182.5 136.5q-190 96 -190 268q0 156 108.5 246t286.5 90t285.5 -89t107.5 -245q0 -174 -192 -268q119 -43 185.5 -137.5t66.5 -227.5v2q0 -184 -133.5 -294.5t-319.5 -110.5q-184 0 -318.5 110.5t-134.5 292.5zM236 391q0 -137 102 -225 t258 -88t258 88t102 225v-2q0 141 -95 223t-265 82t-265 -82t-95 -221zM295 1022q0 -96 94 -162.5t203 -66.5q111 0 207 66.5t96 162.5l2 -2q0 111 -78 177.5t-223 66.5t-223 -66.5t-78 -175.5z" />
<glyph unicode="9" horiz-adv-x="1140" d="M123 891q0 195 118.5 330t311.5 135q225 0 345 -156t120 -387q0 -369 -175 -593t-534 -234l-12 94q528 12 614 551q-135 -174 -379 -174q-186 0 -297.5 122t-111.5 312zM215 893q0 -147 85 -244.5t230 -97.5q156 0 262.5 85t131.5 214q-10 180 -103.5 297t-265.5 117 q-152 0 -246 -107.5t-94 -263.5z" />
<glyph unicode=":" horiz-adv-x="382" d="M123 55.5q0 28.5 20.5 48t49 19.5t48 -20.5t19.5 -47.5q0 -29 -19.5 -49t-48 -20t-49 20.5t-20.5 49zM123 862.5q0 28.5 20.5 49t49.5 20.5q27 0 47 -20.5t20 -49t-20.5 -49t-46.5 -20.5q-29 0 -49.5 20.5t-20.5 49z" />
<glyph unicode=";" horiz-adv-x="393" d="M-20 -399q78 100 126 246.5t52 258.5l88 9h-2q0 -137 -54.5 -292t-117.5 -231zM131 862.5q0 26.5 20.5 48t49 21.5t49 -21.5t20.5 -48t-20.5 -48t-49 -21.5t-49 21.5t-20.5 48z" />
<glyph unicode="&#x3c;" horiz-adv-x="1017" d="M82 449v100l774 448l80 -55l-768 -444l768 -443l-78 -55z" />
<glyph unicode="=" horiz-adv-x="1030" d="M82 326l22 88h844l-41 -88h-825zM82 659l22 86h844l-41 -86h-825z" />
<glyph unicode="&#x3e;" horiz-adv-x="1017" d="M82 55l768 443l-768 444l80 55l774 -448v-100l-776 -449z" />
<glyph unicode="?" horiz-adv-x="866" d="M82 1278q154 78 301 78q190 0 306 -106.5t116 -262.5q0 -100 -45 -189t-101.5 -145.5t-120 -138.5t-89.5 -162h-97q16 72 59.5 139.5t94.5 121t99 108.5t80 121.5t32 138.5q0 113 -92.5 201t-239.5 88q-150 0 -279 -82zM330 55q0 27 19.5 47.5t48 20.5t49 -19.5t20.5 -48 t-19.5 -49t-48 -20.5t-49 20t-20.5 49z" />
<glyph unicode="@" horiz-adv-x="1974" d="M123 502q0 399 255 661t669 262q360 0 582 -230t222 -556q0 -260 -100 -427t-264 -167q-92 0 -156.5 47t-75.5 98q-180 -117 -372 -116q-119 0 -191 63q-82 70 -82 199q0 111 74 184.5t205 93.5l344 56v20q0 215 -184 215q-137 0 -363 -141l-18 88q207 133 376 133 q270 0 275 -303v-395q0 -61 45 -108.5t131 -47.5q106 0 187 131t81 379q0 293 -205.5 497.5t-498.5 204.5q-354 0 -598 -227t-244 -614q0 -346 235.5 -572.5t544.5 -226.5q147 0 250 29.5t215 87.5l-10 -107q-223 -94 -438 -94q-387 0 -639 252t-252 631zM696 336 q0 -178 195 -178q166 0 342 116v312l-332 -54q-205 -32 -205 -196z" />
<glyph unicode="A" horiz-adv-x="1130" d="M20 0l424 1233q25 72 69 97.5t118 25.5h35l444 -1356h-98l-156 477h-573l-164 -477h-99zM315 569h510l-225 693q-49 -4 -68 -60z" />
<glyph unicode="B" horiz-adv-x="1159" d="M184 0v1305q182 51 367 51q180 0 296 -76t116 -246q0 -84 -47.5 -158.5t-133.5 -109.5q113 -41 178.5 -147.5t65.5 -231.5q-2 -174 -112.5 -280.5t-284.5 -106.5h-445zM276 92h353q143 0 224 86t81 209q0 154 -101.5 242t-254.5 88h-302v-625zM276 809h306 q141 0 214.5 68.5t73.5 156.5q0 125 -97 178.5t-244.5 53.5t-252.5 -37v-420z" />
<glyph unicode="C" horiz-adv-x="1267" d="M133 668q0 324 171 506t425 182q94 0 198.5 -29t174.5 -76l-2 -106q-158 121 -383 125q-213 0 -352.5 -173t-139.5 -429q0 -258 131 -424t379 -166q211 0 369 98l-19 -115q-158 -76 -348 -75q-289 0 -446.5 193.5t-157.5 488.5z" />
<glyph unicode="D" horiz-adv-x="1406" d="M184 8v1313q223 35 396 35q186 0 324 -55.5t217 -152.5t116 -218t37 -264q0 -186 -67.5 -323.5t-185.5 -212.5t-255 -109.5t-297 -34.5q-102 0 -242 18zM279 90q115 -14 198 -14q141 0 260 29.5t222.5 94t163 183.5t59.5 283q0 129 -32 232t-99.5 187t-187.5 130.5 t-283 48.5q-143 0 -301 -23v-1151z" />
<glyph unicode="E" d="M184 0v1298q305 57 613 58q18 0 57 -1t59 -1l-14 -92q-16 0 -49 1t-49 1q-285 0 -520 -43v-463h530l-49 -94h-481v-570h612l-19 -94h-690z" />
<glyph unicode="F" horiz-adv-x="950" d="M184 0v1298q305 57 572 58q18 0 55 -1t57 -1l-22 -92q-29 2 -88 2q-233 0 -479 -41v-465h485l-49 -94h-434v-664h-97z" />
<glyph unicode="G" horiz-adv-x="1378" d="M133 668q0 317 164 502.5t459 185.5q211 0 393 -125l-8 -113q-172 145 -383 146q-252 0 -392.5 -156t-140.5 -438q0 -256 141.5 -424t391.5 -168q199 0 342 106v539l94 47v-629q-184 -156 -434 -155q-289 0 -458 194.5t-169 487.5z" />
<glyph unicode="H" horiz-adv-x="1402" d="M184 0v1309l92 47v-611h848v564l95 47v-1356h-93v653h-847v-653h-95z" />
<glyph unicode="I" horiz-adv-x="462" d="M184 0v1309l95 47v-1356h-95z" />
<glyph unicode="J" horiz-adv-x="471" d="M-113 -27l19 90q150 0 218.5 85t68.5 274v887l94 47v-932q0 -111 -21.5 -192.5t-55.5 -130t-87 -78t-108.5 -40t-127.5 -10.5z" />
<glyph unicode="K" horiz-adv-x="1138" d="M184 0v1309l92 47v-602l662 602v-121l-600 -545l801 -690h-140l-720 618v-618h-95z" />
<glyph unicode="L" horiz-adv-x="966" d="M184 0v1309l92 47v-1262h650l-17 -94h-716h-9z" />
<glyph unicode="M" horiz-adv-x="1593" d="M143 0l119 1309l86 47l443 -1114l432 1114l90 -45l137 -1311h-94l-119 1139l-412 -1059h-73l-414 1055l-100 -1135h-95z" />
<glyph unicode="N" horiz-adv-x="1325" d="M184 0v1300l111 56l752 -1247v1200l94 47v-1360q-53 0 -78 3t-54.5 21.5t-52.5 57.5l-677 1128v-1206h-95z" />
<glyph unicode="O" horiz-adv-x="1447" d="M133 653q0 311 150.5 508t439.5 197q291 0 441.5 -196.5t150.5 -508.5q0 -332 -168 -499.5t-424 -167.5q-258 0 -424 162.5t-166 504.5zM225 653q0 -303 138.5 -438t359.5 -135q217 0 357.5 140t140.5 433q0 281 -128 446t-370 165t-370 -165t-128 -446z" />
<glyph unicode="P" horiz-adv-x="1189" d="M184 0v1309q244 47 383 47q135 0 245 -40t182.5 -135.5t72.5 -234.5q0 -225 -141.5 -327.5t-374.5 -102.5h-272l2 -516h-97zM279 606h270q424 0 426 340q0 166 -118 241t-292 77q-111 0 -286 -31v-627z" />
<glyph unicode="Q" horiz-adv-x="1441" d="M133 653q0 311 148.5 508t437.5 197t439.5 -196.5t150.5 -508.5q0 -332 -167 -499.5t-423 -167.5q135 -14 279.5 -81t213.5 -136l-18 -93q-94 86 -234.5 148.5t-252.5 75.5v86q-250 4 -412 166.5t-162 500.5zM225 653q0 -156 40 -270.5t109.5 -179t155.5 -94t189 -29.5 q217 0 356 140t139 433q0 281 -125.5 446t-367.5 165t-369 -164t-127 -447z" />
<glyph unicode="R" horiz-adv-x="1210" d="M184 0v1311q219 45 391 45q463 0 463 -412q0 -123 -76.5 -220t-226.5 -128l352 -596h-108l-344 584h-31h-325v-584h-95zM279 676h352q143 0 222 72.5t81 216.5v-2q0 86 -30 146t-87 92t-122.5 45.5t-149.5 13.5q-115 0 -266 -25v-559z" />
<glyph unicode="S" horiz-adv-x="1038" d="M123 1047q0 133 115.5 221t306.5 88q164 0 323 -84l-16 -98q-45 33 -134 61.5t-171 28.5q-147 0 -239.5 -61.5t-92.5 -149.5q0 -125 160 -217l340 -201q201 -119 200 -350q0 -127 -92 -213t-268 -86q-223 0 -395 73l-15 109q193 -90 408 -90q125 0 194.5 64.5t69.5 158.5 q0 164 -174 266l-324 189q-196 117 -196 291z" />
<glyph unicode="T" horiz-adv-x="1060" d="M51 1247l15 94h964l-14 -92h-428v-1249h-94v1247h-443z" />
<glyph unicode="U" horiz-adv-x="1331" d="M184 426v883l92 47v-928q0 -182 100.5 -265t256.5 -83q229 0 420 110v1119l94 47v-1215q-205 -156 -510 -155q-211 0 -332 113.5t-121 326.5z" />
<glyph unicode="V" horiz-adv-x="1214" d="M61 1309l82 47l426 -1227q10 -31 21.5 -39t42.5 -10l407 1229l113 47l-451 -1370h-34q-51 0 -79 5t-57.5 30.5t-48.5 76.5z" />
<glyph unicode="W" horiz-adv-x="1789" d="M61 1309l82 47l424 -1227q10 -31 21.5 -39t42.5 -10l237 702l-182 527l82 47l422 -1227q10 -31 21.5 -39t41.5 -10l365 1229l111 47l-406 -1370h-35q-51 0 -79.5 5t-58.5 30.5t-46 76.5l-186 541l-220 -653h-32q-51 0 -80 5t-58.5 30.5t-48.5 76.5z" />
<glyph unicode="X" horiz-adv-x="1243" d="M61 0l502 684l-461 623l82 49l434 -592l402 545l145 47l-489 -670l506 -686h-115l-446 608l-443 -608h-117z" />
<glyph unicode="Y" horiz-adv-x="1146" d="M184 713v596l92 47v-627q0 -147 95.5 -227t228.5 -80q166 0 268 113v774l95 47v-928q0 -262 -105.5 -358.5t-294.5 -96.5l19 93q150 0 218 83.5t68 272.5q-119 -86 -268 -90q-176 0 -296 104.5t-120 276.5z" />
<glyph unicode="Z" horiz-adv-x="1251" d="M123 141l885 1106h-856l-19 94h946q45 0 45 -34v-13l-8 -59l-901 -1126q-4 -4 -4 -9q0 -6 8 -6h909l-16 -94h-919q-35 0 -44.5 13.5t-15.5 52.5z" />
<glyph unicode="[" horiz-adv-x="555" d="M143 0v1356h351l-15 -88h-248v-1180h263l-15 -88h-336z" />
<glyph unicode="\" horiz-adv-x="624" d="M61 1358l95 -17l407 -1341l-94 4z" />
<glyph unicode="]" horiz-adv-x="540" d="M61 0l11 88h237v1180h-248l13 88h323v-1356h-336z" />
<glyph unicode="^" horiz-adv-x="780" d="M41 825l297 516h100l301 -514l-55 -79l-295 507l-293 -507z" />
<glyph unicode="_" horiz-adv-x="811" d="M82 0l22 88h625l-41 -88h-606z" />
<glyph unicode="`" horiz-adv-x="772" d="M205 1202l16 92q125 -119 346 -190l-215 -2q-90 47 -147 100z" />
<glyph unicode="a" horiz-adv-x="1003" d="M102 260q0 125 86 195q88 72 228 94l336 53q0 246 -193 246q-143 0 -379 -148l-16 93q215 139 391 139q285 0 285 -318v-614h-88v88q-180 -102 -367 -102q-141 0 -211 73q-72 76 -72 201zM193 254q0 -184 202 -184q160 0 357 120v324l-346 -55q-213 -33 -213 -205z" />
<glyph unicode="b" horiz-adv-x="1005" d="M164 0v1313l88 43v-488q127 63 262 64q166 0 272.5 -133t106.5 -324q0 -223 -96.5 -356t-274.5 -133q-164 0 -270 106v-92h-88zM252 283q0 -76 74.5 -142.5t193.5 -66.5q133 0 209 101t76 300q0 162 -84 265.5t-207 103.5q-133 0 -262 -76v-485z" />
<glyph unicode="c" horiz-adv-x="954" d="M113 451q0 209 108.5 345t308.5 136q180 0 301 -115l-18 -108q-29 57 -112 99t-171 42h-5q-162 0 -243 -112q-83 -114 -83 -287q0 -176 104.5 -277.5t280.5 -101.5q104 0 204 30l-12 -92q-96 -25 -188 -24q-215 0 -345 125t-130 340z" />
<glyph unicode="d" horiz-adv-x="1021" d="M113 449q0 207 114.5 345t300.5 138q154 0 242 -80v461l88 43v-1356h-86v82q-119 -96 -262 -96q-195 0 -296 132t-101 331zM276.5 177.5q75.5 -105.5 233.5 -105.5q170 0 262 145v432q0 94 -66.5 145.5t-175.5 51.5h-5q-142 0 -233 -109.5t-91 -278.5q0 -175 75.5 -280.5 z" />
<glyph unicode="e" horiz-adv-x="946" d="M113 449q0 190 106.5 336.5t282.5 146.5q160 0 235.5 -97.5t75.5 -222.5q0 -92 -46 -120.5t-120 -30.5l-448 -23q14 -365 401 -364q121 0 168 14l-18 -88q-70 -14 -150 -14q-227 0 -357 120t-130 343zM205 526l440 21q27 2 36 3t23.5 7t19.5 18.5t5 34.5 q0 111 -61.5 172.5t-171.5 61.5h2q-121 0 -197 -95.5t-96 -222.5z" />
<glyph unicode="f" horiz-adv-x="610" d="M164 0v1159q150 178 426 197l-19 -90q-205 -18 -319 -140v-229h287l-43 -84h-242v-813h-90z" />
<glyph unicode="g" horiz-adv-x="997" d="M113 457q0 240 120 356q123 119 306 119q174 0 295 -86v-783q0 -137 -31 -231t-86 -143t-120 -68.5t-146 -19.5q-115 0 -256 55l28 88q156 -66 252 -66q270 0 275 394q-86 -86 -238 -86h-6q-158 0 -274 112q-119 117 -119 359zM205 455q0 -166 74.5 -275.5t230.5 -109.5 q74 0 139.5 32.5t100.5 94.5v598q-80 47 -218 51q-152 0 -239.5 -103.5t-87.5 -287.5z" />
<glyph unicode="h" d="M164 0v1315l86 41v-559q188 135 362 135q119 0 195 -77t76 -212v-643h-88v621q0 109 -50.5 168t-136.5 59t-184 -48t-172 -116v-684h-88z" />
<glyph unicode="i" horiz-adv-x="458" d="M164 1290.5q0 26.5 19.5 46t46 19.5t46 -19.5t19.5 -46t-19.5 -46t-46 -19.5t-46 19.5t-19.5 46zM186 0v893l88 39v-932h-88z" />
<glyph unicode="j" horiz-adv-x="434" d="M-147 -399l18 82q158 0 225.5 89t67.5 283v840l88 37v-877q0 -262 -105.5 -358t-293.5 -96zM139 1290.5q0 26.5 19.5 46t46 19.5t46 -19.5t19.5 -46t-19.5 -46t-46 -19.5t-46 19.5t-19.5 46z" />
<glyph unicode="k" horiz-adv-x="858" d="M164 0v1315l86 41v-811l487 387v-107l-434 -342l545 -483h-129l-467 420v-420h-88z" />
<glyph unicode="l" horiz-adv-x="415" d="M164 0v1315l88 41v-1356h-88z" />
<glyph unicode="m" horiz-adv-x="1665" d="M164 0v723q90 90 214 149.5t226 59.5q195 0 254 -144q78 66 178 106q95 38 180 38h9q117 -2 196.5 -75t79.5 -208v-649h-88v618q0 109 -49 168.5t-135 61.5q-84 0 -184.5 -46t-163.5 -104v-34v-664h-86v621q0 109 -50.5 168t-136.5 59t-184 -48t-172 -116v-684h-88z" />
<glyph unicode="n" horiz-adv-x="1044" d="M164 0v723q90 90 214 149.5t226 59.5q123 0 200 -72t77 -209v-651h-88v618q0 109 -49.5 169.5t-135.5 60.5q-147 0 -356 -164v-684h-88z" />
<glyph unicode="o" d="M113 444q0 221 104.5 354.5t304.5 133.5q203 0 307.5 -133t104.5 -355v2q0 -233 -116 -346.5t-294 -113.5q-182 0 -296.5 109t-114.5 349zM201 446q0 -373 321 -372q143 0 233.5 88t90.5 284v-2q0 193 -82 296.5t-239.5 103.5t-240.5 -104t-83 -294z" />
<glyph unicode="p" horiz-adv-x="1015" d="M164 -385v1171q123 145 346 146q172 0 282.5 -136.5t110.5 -308.5v2q0 -238 -122 -370.5t-306 -132.5q-133 0 -223 63v-434h-88zM250 162q96 -90 225 -90q145 0 243.5 106.5t98.5 310.5v-2q0 143 -88 251t-219 108q-166 0 -260 -90v-594z" />
<glyph unicode="q" horiz-adv-x="1003" d="M113 467q0 242 117 354q116 111 294 111h6q162 0 310 -70v-1247h-88v434q-94 -63 -207 -63q-172 0 -302 132t-130 349zM201 469q0 -180 104.5 -287.5t243.5 -107.5q115 0 203 88v643q-121 45 -220 45q-147 0 -239 -89t-92 -292z" />
<glyph unicode="r" horiz-adv-x="622" d="M164 0v725q135 178 438 207l-14 -86q-102 -8 -194.5 -50t-141.5 -100v-696h-88z" />
<glyph unicode="s" horiz-adv-x="811" d="M113 717q0 96 89 155.5t228 59.5q111 0 217 -58l-10 -86q-133 59 -207 60q-227 0 -227 -137q0 -76 102 -138l264 -159q129 -78 129 -224q0 -84 -75.5 -144t-202.5 -60q-164 0 -279 57l-12 104q145 -76 289 -75q86 0 139 34.5t53 88.5q0 92 -116 163l-248 152 q-133 86 -133 207z" />
<glyph unicode="t" horiz-adv-x="579" d="M164 180v950l88 39v-272h246l-43 -84h-203v-633q0 -109 119 -108q37 0 73 10l21 -86q-41 -10 -96 -10q-86 0 -145.5 48t-59.5 146z" />
<glyph unicode="u" horiz-adv-x="1032" d="M164 319v564l86 49v-613q0 -250 219 -249q152 0 311 100v713l88 49v-932h-88v72q-166 -86 -319 -86q-152 0 -224.5 88.5t-72.5 244.5z" />
<glyph unicode="v" horiz-adv-x="882" d="M51 885l78 47l277 -842q10 -33 24 -33l295 828l106 47l-329 -946h-76q-80 0 -111 104z" />
<glyph unicode="w" horiz-adv-x="1347" d="M51 885l74 47l324 -842q10 -31 24 -31l166 533l-94 293l84 47l248 -840q8 -33 22 -33l293 826l104 47l-323 -946h-68q-47 0 -71.5 13t-34.5 50l-117 402l-147 -465h-68q-72 0 -92 59z" />
<glyph unicode="x" horiz-adv-x="899" d="M51 0l344 477l-299 408l80 47l273 -379l247 342l138 37l-330 -455l344 -477h-109l-290 403l-289 -403h-109z" />
<glyph unicode="y" horiz-adv-x="1009" d="M164 319v566l86 47v-610q0 -131 56 -191.5t151 -60.5q147 0 301 100v715l88 47v-854q0 -477 -383 -477q-113 0 -258 55l28 88q152 -63 252 -63q137 0 208 109.5t71 285.5q-170 -90 -313 -90h-7q-125 0 -201 77q-79 80 -79 256z" />
<glyph unicode="z" horiz-adv-x="987" d="M102 78l637 735h-637l13 84h716q35 0 35 -35v-37l-641 -739h660l-13 -86h-710q-29 0 -37 7t-14 36z" />
<glyph unicode="{" horiz-adv-x="577" d="M61 455l27 106q45 0 77 33t32 70v389q0 303 319 303l-18 -90q-47 0 -75 -6.5t-61.5 -27t-50 -69.5t-16.5 -129v-354q0 -76 -37 -119t-74 -49q39 -10 75 -58t36 -135v-368q0 -145 56.5 -189.5t164.5 -44.5l-22 -90q-121 0 -208 67.5t-87 231.5v406q0 43 -36 83t-102 40z " />
<glyph unicode="|" horiz-adv-x="415" d="M164 -481v2130h88v-2130h-88z" />
<glyph unicode="}" horiz-adv-x="561" d="M61 -373l17 90q104 0 150 42t46 190v370q0 86 37 134.5t76 56.5q-37 8 -74 51t-37 119v354q0 78 -17 129t-52 72.5t-65.5 29t-75.5 7.5l24 84q283 0 283 -303v-387q0 -37 40 -70t87 -33l-25 -106q-102 0 -102 -125v-406q0 -168 -82.5 -233.5t-229.5 -65.5z" />
<glyph unicode="~" horiz-adv-x="985" d="M164 1190l24 104q41 10 95 11q90 0 162.5 -34t132 -68t119 -34t104.5 15l20 -88q-72 -18 -131 -19q-104 0 -219 66.5t-199 66.5q-61 0 -108 -20z" />
<glyph unicode="&#xa1;" horiz-adv-x="460" d="M160 1286q0 29 21.5 49.5t50 20.5t48 -20.5t19.5 -49.5t-20.5 -49t-47.5 -20q-29 0 -50 20t-21 49zM186 -14v1005h88v-964z" />
<glyph unicode="&#xa2;" horiz-adv-x="954" d="M113 451q0 213 98 331.5t246 143.5v149l86 41v-184q176 -6 288 -113l-18 -108q-27 55 -104.5 95t-165.5 46v-780q6 0 16 -1t14 -1q115 0 215 32l-12 -92q-96 -25 -188 -24q-29 0 -43 2v-142h-88v154q-154 35 -249 149t-95 302zM199 451q0 -150 70.5 -240t187.5 -123v758 q-113 -25 -185.5 -121t-72.5 -274z" />
<glyph unicode="&#xa3;" horiz-adv-x="1060" d="M123 0v88h182v707h-182v86h182v270q176 207 475 207q39 0 117 -8l-20 -86q-31 4 -95 4q-268 0 -385 -146v-241h332l-37 -86h-295v-707h561l-18 -88h-817z" />
<glyph unicode="&#xa5;" horiz-adv-x="1552" d="M164 549v760l92 47v-807q0 -141 99.5 -215t242.5 -74q100 0 206.5 37t182.5 92l-4 928l88 37v-967h420l-41 -88h-379v-106h332l-41 -89h-289v-94q0 -61 -12 -120.5t-43 -122t-92.5 -107.5t-149.5 -59l-16 96q109 20 168 104t59 213v265q-176 -109 -389 -109 q-184 0 -309 98.5t-125 280.5z" />
<glyph unicode="&#xa7;" horiz-adv-x="1122" d="M123 520q0 100 62.5 188.5t168.5 127.5q-104 100 -104 258v16q193 223 534 246l-20 -90q-276 -25 -426 -189q4 -80 44 -139t98.5 -94t129 -64.5t139 -58.5t125 -64.5t91 -94t34.5 -138.5q-2 -98 -63.5 -185t-157.5 -126q115 -94 109 -228q-6 -139 -111.5 -213.5 t-259.5 -79.5l14 89q123 8 196 62t75 146q2 78 -50.5 131.5t-158.5 102.5q-25 12 -110 46t-131 58.5t-107.5 67.5t-91 99t-29.5 126zM209 520q0 -55 28.5 -98t83 -77t107.5 -57.5t130 -55t124 -56.5q63 8 116.5 46t82 91.5t33 109.5t-36.5 111.5t-121 90.5q-25 10 -78 31.5 t-86 35t-77 35t-77 41.5q-104 -18 -166.5 -90t-62.5 -158z" />
<glyph unicode="&#xa8;" horiz-adv-x="880" d="M205 1224.5q0 26.5 19.5 46t46 19.5t46 -19.5t19.5 -46t-19.5 -46t-46 -19.5t-46 19.5t-19.5 46zM543 1224.5q0 26.5 19.5 46t46 19.5t47 -19.5t20.5 -46t-20.5 -46t-47 -19.5t-46 19.5t-19.5 46z" />
<glyph unicode="&#xa9;" horiz-adv-x="790" d="M102 1042q0 129 91.5 221.5t222.5 92.5q129 0 221 -91t92 -223q0 -129 -91 -221t-222 -92q-129 0 -221.5 91t-92.5 222zM152 1042.5q0 -108.5 77.5 -186.5t186 -78t186.5 78t78 186.5t-78 186.5t-186.5 78t-186 -78t-77.5 -186.5zM254 1042q0 82 44 134.5t124 52.5 q49 0 90 -17l-10 -53q-41 20 -80 21q-55 0 -87 -36t-32 -99.5t34 -99.5t85 -36q43 0 80 25l-6 -60q-37 -14 -74 -14q-70 0 -119 49t-49 133z" />
<glyph unicode="&#xaa;" horiz-adv-x="653" d="M72 899q0 80 57 135.5t160 71.5l209 33q-6 135 -113 135q-88 0 -260 -105l-14 88q152 98 270 99q201 0 201 -221v-416h-84v49q-113 -57 -228 -57q-100 0 -149 52t-49 136zM158 899q0 -106 118 -106q98 0 222 71v189l-213 -33q-127 -19 -127 -121z" />
<glyph unicode="&#xab;" horiz-adv-x="634" d="M82 487l143 347l103 26l-152 -373l160 -391h-88zM279 487l143 347l102 26l-151 -373l159 -391h-88z" />
<glyph unicode="&#xac;" horiz-adv-x="1132" d="M61 582v80h949v-662h-97v582h-852z" />
<glyph unicode="&#xad;" horiz-adv-x="667" d="M82 473l22 88h482l-41 -88h-463z" />
<glyph unicode="&#xae;" horiz-adv-x="790" d="M102 1042q0 129 91.5 221.5t222.5 92.5q129 0 221 -91t92 -223q0 -129 -91 -221t-222 -92q-129 0 -221.5 91t-92.5 222zM152 1042.5q0 -108.5 77.5 -186.5t186 -78t186.5 78t78 186.5t-78 186.5t-186.5 78t-186 -78t-77.5 -186.5zM309 872v338q82 14 105 15q51 0 91 -27 t40 -76q0 -70 -72 -98l90 -152h-55l-84 138h-14h-52l2 -138h-51zM358 1059h50q37 0 61.5 20.5t24.5 42.5v-2q0 53 -84 54q-23 0 -52 -5v-110z" />
<glyph unicode="&#xaf;" horiz-adv-x="1114" d="M82 952l440 461h68l442 -461l-43 -92l-432 459l-434 -457zM506 0v897l88 41v-938h-88z" />
<glyph unicode="&#xb0;" horiz-adv-x="790" d="M82 1042q0 129 91 221.5t222 92.5q129 0 221.5 -91t92.5 -223q0 -129 -91.5 -221t-222.5 -92q-129 0 -221 91t-92 222zM143 1042.5q0 -102.5 75 -176t177.5 -73.5t176 73.5t73.5 176t-73.5 176t-176 73.5t-177.5 -73.5t-75 -176z" />
<glyph unicode="&#xb1;" horiz-adv-x="1040" d="M82 135l22 88h854l-40 -88h-836zM82 690l22 86h377v340l88 39v-379h389l-40 -86h-349v-375h-88v375h-399z" />
<glyph unicode="&#xb2;" horiz-adv-x="651" d="M72 643q20 66 86.5 136.5t133 120.5t121 114.5t54.5 124.5q0 57 -40 93t-112 36q-106 0 -194 -58l-17 93q100 53 209 53q104 0 173 -58.5t69 -158.5q0 -82 -51 -155t-115.5 -119t-132.5 -107.5t-92 -116.5h416l-19 -90h-473z" />
<glyph unicode="&#xb3;" horiz-adv-x="641" d="M72 1341h434q23 0 37 -9t12 -29l-6 -35l-244 -219q125 -12 194.5 -88t69.5 -175q0 -113 -78.5 -182t-195.5 -69q-104 0 -174 34l-19 105q90 -51 181 -51q84 0 140 41t58 124q0 90 -62.5 131.5t-154.5 41.5q-35 0 -65 -7l-37 74l244 223h-318z" />
<glyph unicode="&#xb4;" horiz-adv-x="772" d="M205 1102q217 72 344 192l18 -90q-43 -47 -145 -102h-217z" />
<glyph unicode="&#xb5;" horiz-adv-x="1032" d="M164 -385v1268l86 49v-582q0 -145 52 -212.5t167 -67.5q147 0 311 102v711l88 49v-932h-88v74q-170 -88 -319 -88q-133 0 -209 75v-446h-88z" />
<glyph unicode="&#x3bc;" horiz-adv-x="1032" d="M164 -385v1268l86 49v-582q0 -145 52 -212.5t167 -67.5q147 0 311 102v711l88 49v-932h-88v74q-170 -88 -319 -88q-133 0 -209 75v-446h-88z" />
<glyph unicode="&#xb6;" horiz-adv-x="880" d="M123 877q0 201 83 329.5t226 149.5h88v-1356h-94l2 426q-131 31 -218 155t-87 296zM602 0v1309l94 47v-1356h-94z" />
<glyph unicode="&#xb7;" horiz-adv-x="268" d="M61 506q0 29 21.5 50.5t50.5 21.5q31 0 52.5 -21.5t21.5 -50.5t-21.5 -50.5t-52.5 -21.5q-29 0 -50.5 21.5t-21.5 50.5z" />
<glyph unicode="&#xb8;" horiz-adv-x="1114" d="M82 952l440 461h68l442 -461l-43 -92l-395 418v-1278h-86v1268l-385 -406z" />
<glyph unicode="&#xb9;" horiz-adv-x="374" d="M61 1325q74 8 101 8h2q66 0 139 -14v-768h-88v692q-14 2 -43 2q-51 0 -98 -8z" />
<glyph unicode="&#xba;" horiz-adv-x="708" d="M72 1024q0 147 71.5 239.5t211 92.5t211 -92.5t71.5 -239.5q0 -158 -80 -235.5t-203 -77.5t-202.5 75.5t-79.5 237.5zM156 1024q0 -229 198 -229q88 0 142.5 54t54.5 175q0 248 -197 248q-198 0 -198 -248z" />
<glyph unicode="&#xbb;" horiz-adv-x="634" d="M102 96l160 391l-151 373l100 -24l145 -347l-166 -393h-88zM299 96l160 391l-152 373l101 -24l145 -347l-166 -393h-88z" />
<glyph unicode="&#xbc;" horiz-adv-x="1323" d="M61 1325q74 8 101 8h2q66 0 139 -14v-768h-88v692q-14 2 -43 2q-51 0 -98 -8zM102 -23l906 1362l108 17l-905 -1372zM709 213v45q0 53 30 100l283 426h102l-315 -481h215v146l88 47v-193h139l-37 -88h-100v-215h-88v213h-317z" />
<glyph unicode="&#xbd;" horiz-adv-x="1462" d="M61 1325q74 8 99 8h4q66 0 139 -14v-768h-88v692q-14 2 -43 2q-51 0 -98 -8zM102 -23l906 1362l108 17l-905 -1372zM862 92q20 66 88 136.5t134.5 120.5t121 114.5t54.5 124.5q0 55 -41 92t-113 37q-109 0 -193 -58l-18 93q100 53 211 53q102 0 172 -58.5t70 -158.5 q0 -82 -51.5 -155t-116 -119t-132 -107.5t-92.5 -116.5h414l-18 -90h-473z" />
<glyph unicode="&#xbe;" horiz-adv-x="1480" d="M61 1341h435q23 0 37 -9t12 -29l-6 -35l-244 -219q125 -12 194.5 -88t69.5 -175q0 -113 -79 -182t-195 -69q-104 0 -174 34l-19 105q90 -51 180 -51q84 0 140.5 41t58.5 124q0 90 -62.5 131.5t-154.5 41.5q-35 0 -66 -7l-36 74l243 223h-317zM260 -23l905 1362l109 17 l-905 -1372zM866 213v45q0 53 31 100l283 426h102l-315 -481h215v146l88 47v-193h139l-37 -88h-100v-215h-88v213h-318z" />
<glyph unicode="&#xbf;" horiz-adv-x="866" d="M61 354q0 84 29 155t73 126t91 106.5t94 116t70 131.5h94q-14 -72 -58 -139.5t-94.5 -120.5t-98.5 -108.5t-79.5 -122t-31.5 -138.5q0 -113 92 -200.5t239 -87.5q145 0 279 82l24 -91q-154 -78 -303 -77q-190 0 -305 105t-115 263zM397 1286q0 29 20.5 49.5t49.5 20.5 t49.5 -20.5t20.5 -49.5q0 -27 -20.5 -47t-49.5 -20t-49.5 20t-20.5 47z" />
<glyph unicode="&#xc0;" horiz-adv-x="1130" d="M20 0l424 1233q25 72 69 97.5t118 25.5h35l444 -1356h-98l-156 477h-573l-164 -477h-99zM315 569h510l-225 693q-49 -4 -68 -60zM338 1552l16 93q129 -123 346 -193h-215q-98 51 -147 100z" />
<glyph unicode="&#xc1;" horiz-adv-x="1130" d="M20 0l424 1233q25 72 69 97.5t118 25.5h35l444 -1356h-98l-156 477h-573l-164 -477h-99zM315 569h510l-225 693q-49 -4 -68 -60zM487 1452q213 70 344 193l19 -93q-57 -53 -148 -100h-215z" />
<glyph unicode="&#xc2;" horiz-adv-x="1130" d="M20 0l424 1233q25 72 69 97.5t118 25.5h35l444 -1356h-98l-156 477h-573l-164 -477h-99zM315 569h510l-225 693q-49 -4 -68 -60zM322 1542q51 51 170 117h165q115 -59 172 -117l-16 -92q-92 84 -238 152q-145 -66 -237 -150z" />
<glyph unicode="&#xc3;" horiz-adv-x="1130" d="M20 0l424 1233q25 72 69 97.5t118 25.5h35l444 -1356h-98l-156 477h-573l-164 -477h-99zM315 569h510l-225 693q-49 -4 -68 -60zM315 1530l19 104q35 10 78 11q94 0 190 -68t152 -68q49 0 86 15l18 -88q-66 -20 -106 -21q-86 0 -181.5 67.5t-167.5 67.5q-41 0 -88 -20z " />
<glyph unicode="&#xc4;" horiz-adv-x="1130" d="M20 0l424 1233q25 72 69 97.5t118 25.5h35l444 -1356h-98l-156 477h-573l-164 -477h-99zM315 569h510l-225 693q-49 -4 -68 -60zM387 1552q0 29 19.5 48.5t46 19.5t47 -19.5t20.5 -46t-20.5 -47t-47 -20.5t-46 19t-19.5 46zM637 1552.5q0 26.5 19.5 47t46 20.5t47 -19.5 t20.5 -46t-19.5 -47t-46 -20.5t-47 19.5t-20.5 46z" />
<glyph unicode="&#xc5;" horiz-adv-x="1130" d="M20 0l424 1227q14 45 41 73q-78 51 -77 144q0 72 52 124t123.5 52t124 -51t52.5 -123q0 -92 -78 -146l428 -1300h-98l-156 475h-573l-164 -475h-99zM315 569h510l-225 688q-49 -4 -68 -59zM496 1446q0 -37 25.5 -63.5t62.5 -26.5t62.5 25.5t25.5 64.5v-2q0 37 -25.5 63.5 t-62.5 26.5t-62.5 -25.5t-25.5 -62.5z" />
<glyph unicode="&#xc6;" horiz-adv-x="1728" d="M20 0l687 1231q39 70 81.5 97.5t112.5 27.5h33l20 -43q279 43 525 43q20 0 59 -1t57 -1l-16 -92q-14 0 -47 1t-51 1q-281 0 -520 -43v-465h530l-49 -92h-481v-570h614l-19 -94h-690v428h-491l-238 -428h-117zM424 520h444v8v7v8v6v8v6v8v7v8v6v8v8v6v9v6v8v6v8v8v7v8v6v8 v8v6v9v6v8v8v6v9v6v8v8v6v8v9v6v8v8v6v8v9v6v8v8v6v8v9v6v8v8v6v9v8v8v6v8v8v9v8v6v8v8v9v8v6v8v8v8v9v8v8v8v8v9v8v8v8v8v9v8v8v8v10v9v8v10v8v10v11v10v10v17q-37 -2 -67 -60z" />
<glyph unicode="&#xc7;" horiz-adv-x="1267" d="M133 662q0 324 173 509t423 185q94 0 198.5 -29t174.5 -76l-2 -108q-160 123 -383 127q-211 0 -351.5 -175t-140.5 -431q0 -285 141.5 -433.5t354.5 -152.5q221 0 383 98l-19 -115q-147 -72 -331 -75l-9 -54q111 -39 111 -145q0 -66 -42 -117t-105 -55l-27 84 q37 0 62.5 23.5t25.5 60.5q0 92 -133 92l22 109q-229 25 -377.5 200t-148.5 478z" />
<glyph unicode="&#xc8;" d="M184 0v1298q305 57 613 58q18 0 57 -1t59 -1l-14 -92q-16 0 -49 1t-49 1q-285 0 -520 -43v-463h530l-49 -94h-481v-570h612l-19 -94h-690zM367 1552l16 93q135 -129 346 -193h-215q-98 51 -147 100z" />
<glyph unicode="&#xc9;" d="M184 0v1298q305 57 613 58q18 0 57 -1t59 -1l-14 -92q-16 0 -49 1t-49 1q-285 0 -520 -43v-463h530l-49 -94h-481v-570h612l-19 -94h-690zM401 1454q215 70 347 193l16 -91q-43 -47 -146 -102h-217z" />
<glyph unicode="&#xca;" d="M184 0v1298q305 57 613 58q18 0 57 -1t59 -1l-14 -92q-16 0 -49 1t-49 1q-285 0 -520 -43v-463h530l-49 -94h-481v-570h612l-19 -94h-690zM291 1542q51 51 170 117h166q115 -59 172 -117l-17 -92q-92 84 -237 152q-145 -66 -238 -150z" />
<glyph unicode="&#xcb;" d="M184 0v1298q305 57 613 58q18 0 57 -1t59 -1l-14 -92q-16 0 -49 1t-49 1q-285 0 -520 -43v-463h530l-49 -94h-481v-570h612l-19 -94h-690zM281 1554.5q0 26.5 19 47t46 20.5t47.5 -19.5t20.5 -46t-19.5 -47t-46 -20.5t-47 19.5t-20.5 46zM664 1554q0 29 19 48.5t46 19.5 t47.5 -19.5t20.5 -46.5q0 -29 -19.5 -48t-48.5 -19q-27 0 -46 19t-19 46z" />
<glyph unicode="&#xcc;" horiz-adv-x="456" d="M33 1552l16 93q135 -129 346 -193h-215q-98 51 -147 100zM272 2v1315l88 39v-1352z" />
<glyph unicode="&#xcd;" horiz-adv-x="456" d="M49 1452q209 63 346 193l17 -93q-53 -53 -146 -100h-217zM160 2v1315l88 39v-1352z" />
<glyph unicode="&#xce;" horiz-adv-x="507" d="M0 1542q51 51 170 117h166q115 -59 172 -117l-16 -92q-92 84 -238 152q-145 -66 -238 -150zM213 2v1315l88 39v-1352z" />
<glyph unicode="&#xcf;" horiz-adv-x="456" d="M18 1554.5q0 26.5 19.5 47t46.5 20.5t47.5 -19.5t20.5 -46t-19.5 -47t-46.5 -20.5t-47.5 19.5t-20.5 46zM209 2v1315l88 39v-1352zM313 1554.5q0 26.5 19.5 47t46.5 20.5t47 -19.5t20 -46t-19 -47t-46 -20.5t-47.5 19.5t-20.5 46z" />
<glyph unicode="&#xd0;" horiz-adv-x="1406" d="M12 811v88h172v422q236 35 379 35q342 -2 526.5 -177t184.5 -513v2q0 -186 -67.5 -324.5t-184.5 -213.5t-254 -109.5t-297 -34.5q-127 0 -244 18l-41 6v801h-174zM279 92q115 -14 198 -14q141 0 260 29.5t222.5 94t163 183.5t59.5 283v-2q0 594 -619 598q-135 0 -284 -21 v-344h370l-43 -88h-327v-719z" />
<glyph unicode="&#xd1;" horiz-adv-x="1325" d="M184 0v1300l111 56l752 -1247v1200l94 47v-1360q-53 0 -78 3t-54.5 21.5t-52.5 57.5l-677 1128v-1206h-95zM401 1522l21 104q27 8 78 8q94 0 190 -66.5t152 -66.5q49 0 86 15l18 -89q-66 -20 -108 -20q-86 0 -180.5 67.5t-165.5 67.5q-44 0 -91 -20z" />
<glyph unicode="&#xd2;" horiz-adv-x="1447" d="M133 653q0 311 150.5 508t439.5 197q291 0 441.5 -196.5t150.5 -508.5q0 -332 -168 -499.5t-424 -167.5q-258 0 -424 162.5t-166 504.5zM225 653q0 -303 138.5 -438t359.5 -135q217 0 357.5 140t140.5 433q0 281 -128 446t-370 165t-370 -165t-128 -446zM510 1532l16 92 q137 -129 346 -192h-215q-98 51 -147 100z" />
<glyph unicode="&#xd3;" horiz-adv-x="1447" d="M133 653q0 311 150.5 508t439.5 197q291 0 441.5 -196.5t150.5 -508.5q0 -332 -168 -499.5t-424 -167.5q-258 0 -424 162.5t-166 504.5zM225 653q0 -303 138.5 -438t359.5 -135q217 0 357.5 140t140.5 433q0 281 -128 446t-370 165t-370 -165t-128 -446zM641 1452 q209 63 346 193l17 -93q-53 -53 -146 -100h-217z" />
<glyph unicode="&#xd4;" horiz-adv-x="1447" d="M133 653q0 311 150.5 508t439.5 197q291 0 441.5 -196.5t150.5 -508.5q0 -332 -168 -499.5t-424 -167.5q-258 0 -424 162.5t-166 504.5zM225 653q0 -303 138.5 -438t359.5 -135q217 0 357.5 140t140.5 433q0 281 -128 446t-370 165t-370 -165t-128 -446zM475 1542 q51 51 170 117h166q115 -59 172 -117l-16 -92q-92 84 -238 152q-145 -66 -237 -150z" />
<glyph unicode="&#xd5;" horiz-adv-x="1447" d="M133 651q0 311 150.5 508t439.5 197q291 0 441.5 -195.5t150.5 -509.5v2q0 -334 -168 -501.5t-424 -167.5q-123 0 -225.5 36.5t-186.5 113.5t-131 209t-47 308zM225 653q0 -303 138.5 -439t359.5 -136q217 0 357.5 141t140.5 434v-2q0 281 -128 446t-370 165 q-244 0 -371 -164t-127 -445zM430 1530l19 104q35 10 77 11q94 0 190.5 -68t151.5 -68q49 0 86 15l19 -88h2q-66 -20 -109 -21q-86 0 -181 67.5t-165 67.5q-43 0 -90 -20z" />
<glyph unicode="&#xd6;" horiz-adv-x="1447" d="M133 653q0 311 150.5 508t439.5 197q291 0 441.5 -196.5t150.5 -508.5q0 -332 -168 -499.5t-424 -167.5q-258 0 -424 162.5t-166 504.5zM225 653q0 -303 138.5 -438t359.5 -135q217 0 357.5 140t140.5 433q0 281 -128 446t-370 165t-370 -165t-128 -446zM393 1552.5 q0 26.5 19.5 47t46 20.5t47 -19.5t20.5 -46t-19.5 -47t-46 -20.5t-47 19.5t-20.5 46zM901 1552q0 29 19.5 48.5t46 19.5t46 -19.5t19.5 -46.5q0 -29 -19.5 -48t-46 -19t-46 19t-19.5 46z" />
<glyph unicode="&#xd7;" horiz-adv-x="942" d="M61 78l345 342l-326 325l33 91l352 -355l348 348l33 -90l-320 -317l355 -352l-62 -64l-352 354l-358 -360z" />
<glyph unicode="&#xd8;" horiz-adv-x="1447" d="M133 653q0 311 150.5 508t439.5 197q193 0 330 -94l53 77l108 17l-98 -146q199 -193 199 -559q0 -332 -168 -499.5t-424 -167.5q-209 0 -350 100l-64 -98l-110 -6l108 159q-174 174 -174 512zM225 653q0 -285 133 -432l643 965v-2q-115 80 -278 80q-242 0 -370 -165 t-128 -446zM424 164q119 -84 299 -84q217 0 357.5 140t140.5 433q0 317 -156 480z" />
<glyph unicode="&#xd9;" horiz-adv-x="1331" d="M184 426v883l92 47v-930q0 -184 94.5 -265t250.5 -81q256 0 432 110v1119l94 47v-1217q-199 -152 -510 -155h-10q-193 0 -318 112.5t-125 329.5zM420 1552l16 93q139 -129 344 -193h-213q-98 51 -147 100z" />
<glyph unicode="&#xda;" horiz-adv-x="1331" d="M184 426v883l92 47v-930q0 -184 94.5 -265t250.5 -81q256 0 432 110v1119l94 47v-1217q-199 -152 -510 -155h-10q-193 0 -318 112.5t-125 329.5zM584 1432q209 63 344 192l16 -92h2q-57 -53 -147 -100h-215z" />
<glyph unicode="&#xdb;" horiz-adv-x="1331" d="M184 426v883l92 47v-930q0 -184 94.5 -265t250.5 -81q256 0 432 110v1119l94 47v-1217q-199 -152 -510 -155h-10q-193 0 -318 112.5t-125 329.5zM422 1542q51 51 170 117h166q115 -59 172 -117l-17 -92q-92 84 -237 152q-145 -66 -238 -150z" />
<glyph unicode="&#xdc;" horiz-adv-x="1331" d="M184 422v883l92 47v-930q0 -184 95.5 -266t249.5 -82q254 0 432 112v1119l94 47v-1217q-199 -152 -510 -155h-10q-193 0 -318 112.5t-125 329.5zM371 1552.5q0 26.5 19.5 47t46 20.5t46 -19.5t19.5 -46.5h2q0 -27 -19.5 -47t-46 -20t-47 19.5t-20.5 46zM842 1552.5 q0 26.5 19.5 47t46 20.5t47 -19.5t20.5 -46t-19.5 -47t-46 -20.5t-47 19.5t-20.5 46z" />
<glyph unicode="&#xdd;" horiz-adv-x="1146" d="M184 715v594l92 47v-625q0 -147 95.5 -227t228.5 -80q166 0 268 113v772l95 49v-928q0 -262 -105.5 -358.5t-294.5 -96.5l19 93q150 0 218 84t68 272q-119 -86 -268 -90q-176 0 -296 104.5t-120 276.5zM449 1446q217 72 344 192l16 -90h2q-47 -47 -147 -102h-215z" />
<glyph unicode="&#xde;" horiz-adv-x="1097" d="M184 0v1309l92 47v-283h246q223 0 333 -118.5t110 -305.5v2q0 -182 -114 -302t-327 -120h-245v-229h-95zM276 322h246q180 0 265 91t85 238v-2q0 147 -83.5 238.5t-264.5 91.5h-248v-657z" />
<glyph unicode="&#xdf;" horiz-adv-x="942" d="M164 0v1157q160 188 440 199q164 -113 164 -309q0 -156 -164 -275q-106 -78 -106 -117q0 -35 57 -80l193 -165q113 -94 112 -201q0 -84 -63.5 -137.5t-138 -69.5t-156.5 -16l14 86q113 4 182.5 39.5t69.5 99.5q0 66 -70 127l-227 192q-70 61 -70 132q0 39 29 73.5t70 64 t82 63.5t69.5 83t28.5 107q0 133 -100 219q-209 -18 -328 -146v-1126h-88z" />
<glyph unicode="&#xe0;" horiz-adv-x="1003" d="M102 254q-2 129 86 200.5t228 94.5l336 53q0 246 -193 246q-143 0 -379 -148l-16 93q215 139 391 139q285 0 285 -318v-614h-88v88q-180 -102 -367 -102q-141 0 -211 73.5t-72 194.5zM193 254q0 -184 202 -184q160 0 357 120v324l-346 -55q-213 -33 -213 -205zM256 1202 l16 92q127 -119 346 -190l-215 -2q-90 47 -147 100z" />
<glyph unicode="&#xe1;" horiz-adv-x="1003" d="M102 254q-2 129 86 200.5t228 94.5l336 53q0 246 -193 246q-143 0 -379 -148l-16 93q215 139 391 139q285 0 285 -318v-614h-88v88q-180 -102 -367 -102q-141 0 -211 73.5t-72 194.5zM193 254q0 -184 202 -184q160 0 357 120v324l-346 -55q-213 -33 -213 -205zM352 1102 q215 70 346 192l17 -90q-43 -47 -146 -102h-217z" />
<glyph unicode="&#xe2;" horiz-adv-x="1003" d="M102 254q-2 129 86 200.5t228 94.5l336 53q0 246 -193 246q-143 0 -379 -148l-16 93q215 139 391 139q285 0 285 -318v-614h-88v88q-180 -102 -367 -102q-141 0 -211 73.5t-72 194.5zM193 254q0 -184 202 -184q160 0 357 120v324l-346 -55q-213 -33 -213 -205zM236 1171 q53 55 170 117h165q115 -59 170 -114l-16 -93q-88 84 -236 150q-147 -66 -237 -150z" />
<glyph unicode="&#xe3;" horiz-adv-x="1003" d="M102 254q-2 129 86 200.5t228 94.5l336 53q0 246 -193 246q-143 0 -379 -148l-16 93q215 139 391 139q285 0 285 -318v-614h-88v88q-180 -102 -367 -102q-141 0 -211 73.5t-72 194.5zM193 254q0 -184 202 -184q160 0 357 120v324l-346 -55q-213 -33 -213 -205zM250 1178 l18 102q35 10 78 10q94 0 190.5 -67.5t151.5 -67.5q51 0 86 16l19 -88q-66 -20 -109 -20q-86 0 -180 67.5t-166 67.5q-43 0 -88 -20z" />
<glyph unicode="&#xe4;" horiz-adv-x="1003" d="M102 254q-2 129 86 200.5t228 94.5l336 53q0 246 -193 246q-143 0 -379 -148l-16 93q215 139 391 139q285 0 285 -318v-614h-88v88q-180 -102 -367 -102q-141 0 -211 73.5t-72 194.5zM193 254q0 -184 202 -184q160 0 357 120v324l-346 -55q-213 -33 -213 -205z M262 1224.5q0 26.5 19.5 46t46.5 19.5q29 0 47 -18.5t18 -46.5q0 -27 -19.5 -46.5t-46 -19.5t-46 19.5t-19.5 46zM600 1224.5q0 26.5 19.5 46t46.5 19.5q29 0 48 -19.5t19 -46t-20.5 -46t-47 -19.5t-46 19.5t-19.5 46z" />
<glyph unicode="&#xe5;" horiz-adv-x="1003" d="M102 254q-2 129 86 200.5t228 94.5l336 53q0 246 -193 246q-143 0 -379 -148l-16 93q215 139 391 139q285 0 285 -318v-614h-88v88q-180 -102 -367 -102q-141 0 -211 73.5t-72 194.5zM193 254q0 -184 202 -184q160 0 357 120v324l-346 -55q-213 -33 -213 -205z M348 1212.5q0 71.5 51.5 124t123 52.5t123.5 -51.5t52 -125.5v2q0 -72 -52 -124t-123.5 -52t-123 51.5t-51.5 123zM426 1214q0 -41 28.5 -69.5t67.5 -28.5q41 0 68.5 29t27.5 69v-2q0 41 -28.5 70t-67.5 29t-67.5 -29t-28.5 -68z" />
<glyph unicode="&#xe6;" horiz-adv-x="1523" d="M102 256q0 233 306 291l282 53q0 248 -192 248q-145 0 -338 -133l-17 92q195 125 349 125q223 0 272 -199q113 199 315 199q160 0 236 -98.5t76 -225.5v2q0 -92 -46.5 -120.5t-119.5 -30.5l-447 -23v-16q0 -342 389 -346q127 0 179 14l-19 -88q-70 -14 -151 -14 q-137 2 -245 44t-161 122q-184 -166 -385 -166q-121 0 -199 65q-84 74 -84 205zM190 256q2 -182 195 -182q143 0 305 121v317l-287 -55q-213 -43 -213 -199v-2zM782 524l441 21q33 2 45 5t24.5 16.5t12.5 41.5q0 27 -5 45v-2q-27 193 -223 193h-4q-125 0 -213 -121 q-60 -90 -78 -199z" />
<glyph unicode="&#xe7;" horiz-adv-x="954" d="M113 440q0 242 121.5 363t291.5 121h4q182 -4 301 -115l-18 -107q-29 57 -112 98.5t-173 43.5h-4q-133 0 -229 -98.5t-96 -303.5q0 -186 107.5 -281t268.5 -100h9q106 0 204 33l-12 -94q-100 -23 -190 -23h-2l-6 -36q111 -41 110 -146q0 -66 -42 -117t-105 -55l-27 84 q37 0 62.5 23.5t25.5 60.5q0 92 -135 92l22 101q-166 29 -271 143t-105 313z" />
<glyph unicode="&#xe8;" horiz-adv-x="946" d="M113 449q0 190 106.5 336.5t282.5 146.5q160 0 235.5 -97.5t75.5 -224.5v2q0 -92 -46 -120.5t-120 -30.5l-448 -23q14 -365 401 -364q121 0 168 14l-18 -88q-70 -14 -150 -14q-227 0 -357 120t-130 343zM205 526l440 21q27 2 36 3t23.5 7t19.5 18.5t5 34.5 q0 111 -61.5 172.5t-171.5 61.5h2q-121 0 -197 -95.5t-96 -222.5zM248 1202l16 92q137 -127 346 -190l-215 -2q-90 47 -147 100z" />
<glyph unicode="&#xe9;" horiz-adv-x="946" d="M113 449q0 190 106.5 336.5t282.5 146.5q160 0 235.5 -97.5t75.5 -224.5v2q0 -92 -46 -120.5t-120 -30.5l-448 -23q14 -365 401 -364q121 0 168 14l-18 -88q-70 -14 -150 -14q-227 0 -357 120t-130 343zM205 526l440 21q27 2 36 3t23.5 7t19.5 18.5t5 34.5 q0 111 -61.5 172.5t-171.5 61.5h2q-121 0 -197 -95.5t-96 -222.5zM416 1102q217 72 344 192l18 -90q-43 -47 -145 -102h-217z" />
<glyph unicode="&#xea;" horiz-adv-x="946" d="M113 449q0 190 106.5 336.5t282.5 146.5q160 0 235.5 -97.5t75.5 -222.5q0 -92 -46 -120.5t-120 -30.5l-448 -23q14 -365 401 -364q121 0 168 14l-18 -88q-70 -14 -150 -14q-227 0 -357 120t-130 343zM205 526l440 21q27 2 36 3t23.5 7t19.5 18.5t5 34.5 q0 111 -61.5 172.5t-171.5 61.5h2q-121 0 -197 -95.5t-96 -222.5zM236 1171q53 55 170 117h165q115 -59 170 -114l-16 -93q-88 84 -236 150q-147 -66 -237 -150z" />
<glyph unicode="&#xeb;" horiz-adv-x="946" d="M113 449q0 190 106.5 336.5t282.5 146.5q160 0 235.5 -97.5t75.5 -224.5v2q0 -92 -46 -120.5t-120 -30.5l-448 -23q14 -365 401 -364q121 0 168 14l-18 -88q-70 -14 -150 -14q-227 0 -357 120t-130 343zM205 526l440 21q27 2 36 3t23.5 7t19.5 18.5t5 34.5 q0 111 -61.5 172.5t-171.5 61.5h2q-121 0 -197 -95.5t-96 -222.5zM252 1167q0 29 19.5 48.5t46 19.5t46 -19.5t19.5 -46.5q0 -29 -19.5 -48t-46 -19t-46 19t-19.5 46zM590 1167.5q0 26.5 19.5 47t46 20.5t47 -19.5t20.5 -46t-19.5 -47t-46 -20.5t-47 19.5t-20.5 46z" />
<glyph unicode="&#xec;" horiz-adv-x="411" d="M-59 1202l16 92q131 -125 346 -190l-215 -2q-90 47 -147 100zM164 0v893l88 39v-932h-88z" />
<glyph unicode="&#xed;" horiz-adv-x="411" d="M98 1102q215 70 346 192l17 -90q-43 -47 -146 -102h-217zM164 0v893l86 39v-932h-86z" />
<glyph unicode="&#xee;" horiz-adv-x="411" d="M-47 1171q53 55 170 117h166q111 -57 172 -114l-17 -93q-96 86 -237 150q-145 -66 -238 -150zM162 0v891l88 39v-930h-88z" />
<glyph unicode="&#xef;" horiz-adv-x="411" d="M-8 1167q0 29 19.5 48.5t46 19.5t46 -19.5t19.5 -46.5q0 -29 -19.5 -48t-46 -19t-46 19t-19.5 46zM164 0v893l86 39v-932h-86zM287 1167q0 29 20.5 48.5t47 19.5t46 -19.5t19.5 -46.5q0 -29 -19.5 -48t-46 -19t-47 19t-20.5 46z" />
<glyph unicode="&#xf0;" horiz-adv-x="1134" d="M113 436v13q0 166 111.5 279.5t330.5 113.5q170 0 352 -117q-25 117 -100.5 205t-224.5 184l-113 -127l-68 57l105 115q-166 92 -172 96l-19 95q137 -59 248 -123l115 129l39 -92l-76 -84q211 -135 296 -282.5t85 -330.5q0 -156 -52 -285.5t-161 -213.5t-256 -86h-4 q-188 0 -310 139t-126 315zM209 453q0 -4 2 -7q0 -174 100.5 -272t237.5 -98h2q170 2 270.5 138t100.5 333v55q-197 145 -367 146q-346 0 -346 -295z" />
<glyph unicode="&#xf1;" horiz-adv-x="1044" d="M164 0v723q90 90 214 149.5t226 59.5q123 0 200 -72t77 -209v-651h-88v618q0 109 -49.5 169.5t-135.5 60.5q-147 0 -356 -164v-684h-88zM260 1190l19 104q35 10 77 11q94 0 190.5 -68t151.5 -68q49 0 86 15l19 -88q-57 -18 -107 -19q-86 0 -181 66.5t-165 66.5 q-49 0 -90 -20z" />
<glyph unicode="&#xf2;" d="M113 444q0 221 104.5 354.5t304.5 133.5q203 0 307.5 -133t104.5 -355v2q0 -233 -116 -346.5t-294 -113.5q-182 0 -296.5 109t-114.5 349zM201 446q0 -373 321 -372q143 0 233.5 88t90.5 282q0 193 -82 296.5t-239.5 103.5t-240.5 -104t-83 -294zM240 1202l16 92 q137 -127 346 -190l-215 -2q-90 47 -147 100z" />
<glyph unicode="&#xf3;" d="M113 444q0 221 104.5 354.5t304.5 133.5q203 0 307.5 -133t104.5 -355v2q0 -233 -116 -346.5t-294 -113.5q-182 0 -296.5 109t-114.5 349zM201 446q0 -373 321 -372q143 0 233.5 88t90.5 282q0 193 -82 296.5t-239.5 103.5t-240.5 -104t-83 -294zM449 1102 q215 70 346 192l16 -90q-43 -47 -145 -102h-217z" />
<glyph unicode="&#xf4;" d="M113 444q0 221 104.5 354.5t304.5 133.5q203 0 307.5 -133t104.5 -355v2q0 -233 -116 -346.5t-294 -113.5q-182 0 -296.5 109t-114.5 349zM201 446q0 -373 321 -372q143 0 233.5 88t90.5 284v-2q0 193 -82 296.5t-239.5 103.5t-240.5 -104t-83 -294zM244 1171 q53 55 170 117h166q115 -59 170 -114l-17 -93q-88 84 -235 150q-147 -66 -238 -150z" />
<glyph unicode="&#xf5;" d="M113 444q0 221 104.5 354.5t304.5 133.5q203 0 307.5 -133t104.5 -355v2q0 -233 -116 -346.5t-294 -113.5q-182 0 -296.5 109t-114.5 349zM201 446q0 -373 321 -372q143 0 233.5 88t90.5 282q0 193 -82 296.5t-239.5 103.5t-240.5 -104t-83 -294zM262 1190l21 104 q35 10 77 11q74 0 133.5 -34t108.5 -68t98 -34q51 0 88 15l19 -88q-57 -18 -109 -19q-86 0 -181 66.5t-165 66.5q-49 0 -90 -20z" />
<glyph unicode="&#xf6;" d="M113 444q0 221 104.5 354.5t304.5 133.5q203 0 307.5 -133t104.5 -355v2q0 -233 -116 -346.5t-294 -113.5q-182 0 -296.5 109t-114.5 349zM201 446q0 -373 321 -372q143 0 233.5 88t90.5 282q0 193 -82 296.5t-239.5 103.5t-240.5 -104t-83 -294zM276 1167.5 q0 26.5 19.5 47t46.5 20.5t47.5 -19.5t20.5 -46t-19.5 -47t-46.5 -20.5t-47.5 19.5t-20.5 46zM614 1167.5q0 26.5 19.5 47t46.5 20.5t47.5 -19.5t20.5 -46t-19.5 -47t-46.5 -20.5t-47.5 19.5t-20.5 46z" />
<glyph unicode="&#xf7;" horiz-adv-x="1249" d="M82 473l22 88h1063l-41 -88h-1044zM551 305q-2 29 19.5 50.5t50.5 21.5q31 0 52 -21.5t21 -50.5q2 -29 -19.5 -50.5t-49.5 -21.5q-31 0 -52.5 21.5t-21.5 50.5zM551 727q-2 31 19.5 52.5t50.5 21.5q31 0 52 -21.5t21 -52.5q2 -29 -19.5 -50.5t-49.5 -21.5 q-31 0 -52.5 21.5t-21.5 50.5z" />
<glyph unicode="&#xf8;" d="M113 446q0 221 104.5 353.5t304.5 132.5q141 0 240 -70l39 58l108 16l-88 -129q113 -131 113 -361q0 -231 -116 -345.5t-294 -114.5q-127 0 -221 53l-33 -49l-108 -4l71 104q-120 120 -120 356zM201 446q0 -182 84 -280l428 622q-78 55 -189 56q-158 0 -240.5 -104 t-82.5 -294zM352 113q68 -39 170 -39q143 0 233.5 88t90.5 284q0 178 -76 283z" />
<glyph unicode="&#xf9;" horiz-adv-x="1032" d="M164 319v564l86 49v-613q0 -250 219 -249q152 0 311 100v713l88 49v-932h-88v72q-166 -86 -319 -86q-152 0 -224.5 88.5t-72.5 244.5zM272 1202l17 92q137 -127 346 -190l-215 -2q-91 47 -148 100zM457 -20h2h-2z" />
<glyph unicode="&#xfa;" horiz-adv-x="1032" d="M164 319v564l86 49v-613q0 -250 219 -249q152 0 311 100v713l88 49v-932h-88v72q-166 -86 -319 -86q-152 0 -224.5 88.5t-72.5 244.5zM426 1102q217 72 344 192l18 -90q-51 -49 -145 -102h-217z" />
<glyph unicode="&#xfb;" horiz-adv-x="1032" d="M164 319v564l86 49v-613q0 -250 219 -249q152 0 311 100v713l88 49v-932h-88v72q-166 -86 -319 -86q-152 0 -224.5 88.5t-72.5 244.5zM264 1171q57 57 172 117h164q111 -57 172 -114l-16 -93q-88 84 -236 150q-145 -63 -239 -150z" />
<glyph unicode="&#xfc;" horiz-adv-x="1032" d="M164 319v564l86 49v-613q0 -250 219 -249q152 0 311 100v713l88 49v-932h-88v72q-166 -86 -319 -86q-152 0 -224.5 88.5t-72.5 244.5zM291 1167.5q0 26.5 19.5 47t46 20.5t47 -19.5t20.5 -46t-19.5 -47t-46 -20.5t-47 19.5t-20.5 46zM631 1167q0 29 19.5 48.5t46 19.5 t46 -19.5t19.5 -46.5q0 -29 -19.5 -48t-46 -19t-46 19t-19.5 46z" />
<glyph unicode="&#xfd;" horiz-adv-x="1009" d="M164 319v566l86 47v-610q0 -131 56 -191.5t151 -60.5q147 0 301 100v715l88 47v-854q0 -477 -383 -477q-113 0 -258 55l28 88q145 -61 252 -61q137 0 208 108.5t71 284.5q-170 -90 -313 -90q-129 -2 -208 77.5t-79 255.5zM352 1102q215 70 346 192l17 -90 q-43 -47 -146 -102h-217z" />
<glyph unicode="&#xfe;" horiz-adv-x="1005" d="M164 -385v1696l88 45v-488q127 63 262 64q166 0 272.5 -133t106.5 -324q0 -223 -96.5 -356t-274.5 -133q-164 0 -270 106v-477h-88zM252 283q0 -76 74.5 -142.5t193.5 -66.5q133 0 209 101t76 300q0 162 -84 265.5t-207 103.5q-133 0 -262 -76v-485z" />
<glyph unicode="&#xff;" horiz-adv-x="1009" d="M164 319v566l86 47v-610q0 -131 56 -191.5t151 -60.5q147 0 301 100v715l88 47v-854q0 -477 -383 -477q-113 0 -258 55l28 88q145 -61 252 -61q137 0 208 108.5t71 284.5q-170 -90 -313 -90q-129 -2 -208 77.5t-79 255.5zM281 1222.5q0 26.5 19 47t46 20.5t47.5 -19.5 t20.5 -46t-19.5 -47t-46 -20.5t-47 19.5t-20.5 46zM618 1222.5q0 26.5 19.5 47t46.5 20.5t47.5 -19.5t20.5 -46t-19.5 -47t-46.5 -20.5t-47.5 19.5t-20.5 46z" />
<glyph unicode="&#x152;" horiz-adv-x="2082" d="M133 651q0 311 150.5 508t439.5 197q348 0 500 -289v231q319 59 612 60q20 0 57 -2t58 -2l-15 -92q-33 2 -98 2q-279 0 -520 -41v-465h530l-49 -94h-481v-570h612l-16 -94h-688v254q-78 -135 -210 -201.5t-292 -66.5q-123 0 -225.5 36.5t-186.5 112.5t-131 208t-47 308z M225 653q0 -303 138.5 -438t359.5 -135q217 0 357.5 140t140.5 433v-2q0 281 -128 446t-370 165q-244 0 -371 -164t-127 -445z" />
<glyph unicode="&#x153;" horiz-adv-x="1687" d="M113 446q0 221 104.5 353.5t304.5 132.5q283 0 375 -256q47 115 136 185.5t208 70.5q160 0 236.5 -97.5t76.5 -220.5q0 -49 -14 -80.5t-43 -46t-52.5 -19.5t-58.5 -7l-446 -21q12 -367 399 -366q125 0 168 14l-16 -88q-86 -14 -145 -14q-150 0 -271 59t-178 184 q-47 -123 -146.5 -183t-226.5 -60q-182 0 -296.5 110t-114.5 350zM201 446q0 -373 321 -372q143 0 233.5 88t90.5 284q0 193 -82 295.5t-239.5 102.5t-240.5 -104t-83 -294zM944 526l440 23q33 2 46.5 4t24.5 15.5t11 41.5q0 27 -4 45h2q-31 188 -229 189 q-121 0 -194.5 -93.5t-96.5 -224.5z" />
<glyph unicode="&#x178;" horiz-adv-x="1146" d="M184 713v596l92 47v-625q0 -147 95.5 -227t228.5 -80q166 0 268 113v772l95 47v-926q0 -262 -105.5 -358.5t-294.5 -96.5l19 93q150 0 218 84t68 272q-119 -86 -268 -90h-8q-168 0 -288 103.5t-120 275.5zM330 1554.5q0 26.5 19.5 47t46 20.5t47 -19.5t20.5 -46 t-19.5 -47t-46 -20.5t-47 19.5t-20.5 46zM713 1554.5q0 26.5 19.5 47t46 20.5t47 -19.5t20.5 -46t-19.5 -47t-46 -20.5t-47 19.5t-20.5 46z" />
<glyph unicode="&#x2c6;" horiz-adv-x="917" d="M205 1192q43 47 145 102h215q90 -47 148 -100l-17 -92q-96 86 -237 149q-145 -66 -238 -149z" />
<glyph unicode="&#x2dc;" horiz-adv-x="954" d="M205 1190l20 104q35 10 78 11q74 0 133.5 -34t108.5 -68t98 -34q51 0 88 15l19 -88q-57 -18 -109 -19q-86 0 -181 66.5t-165 66.5q-49 0 -90 -20z" />
<glyph unicode="&#x2013;" horiz-adv-x="749" d="M61 473l23 88h604l-41 -88h-586z" />
<glyph unicode="&#x2014;" horiz-adv-x="980" d="M61 473l25 88h834l-41 -88h-818z" />
<glyph unicode="&#x2018;" horiz-adv-x="260" d="M61 1077q0 127 52 281l86 -10q-49 -162 -49 -263z" />
<glyph unicode="&#x2019;" horiz-adv-x="260" d="M61 1094q49 158 52 262l86 8q0 -127 -52 -281z" />
<glyph unicode="&#x201a;" horiz-adv-x="301" d="M82 -156q49 160 51 262l86 9q0 -131 -51 -281z" />
<glyph unicode="&#x201c;" horiz-adv-x="440" d="M82 1077q0 143 49 291l86 -10q-47 -156 -47 -273zM221 1077q0 123 49 281l88 -12v2q-47 -147 -51 -263z" />
<glyph unicode="&#x201d;" horiz-adv-x="440" d="M82 1094q49 158 51 262l86 8q0 -127 -51 -281zM223 1083q47 156 47 273l88 8q0 -133 -49 -291z" />
<glyph unicode="&#x201e;" horiz-adv-x="440" d="M82 -156q49 160 51 262l86 9q0 -131 -51 -281zM223 -166q47 156 47 272l88 9q0 -137 -49 -291z" />
<glyph unicode="&#x2022;" horiz-adv-x="557" d="M82 506q0 80 57.5 138t139.5 58q80 0 138 -57t58 -139q0 -80 -57.5 -138.5t-138.5 -58.5q-80 0 -138.5 57.5t-58.5 139.5z" />
<glyph unicode="&#x2026;" horiz-adv-x="915" d="M61 55.5q0 28.5 20.5 48t49.5 19.5t48.5 -20.5t19.5 -47.5q0 -29 -19.5 -49t-48.5 -20t-49.5 20.5t-20.5 49zM389 55.5q0 28.5 20.5 48t49 19.5t48 -20.5t19.5 -47.5q0 -29 -19.5 -49t-48 -20t-49 20.5t-20.5 49zM717 55.5q0 28.5 20.5 48t49 19.5t48 -20.5t19.5 -47.5 q0 -29 -19.5 -49t-48 -20t-49 20.5t-20.5 49z" />
<glyph unicode="&#x2039;" horiz-adv-x="438" d="M82 487l143 347l101 26l-152 -373l162 -391h-88z" />
<glyph unicode="&#x203a;" horiz-adv-x="438" d="M102 96l160 391l-151 373l102 -26l143 -347l-166 -391h-88z" />
<glyph unicode="&#x20ac;" horiz-adv-x="1484" d="M61 545l48 86h202v35q0 35 2 53h-198l49 86h155q39 262 203 407.5t385 143.5q94 0 210 -36t204 -97l-14 -111q-92 74 -207 115t-205 43q-182 0 -312 -129t-167 -334h565l-45 -88h-530q-2 -16 -3 -51v-35h480l-45 -88h-426q29 -213 161 -340t340 -127q211 0 367 98 l-16 -115q-152 -76 -349 -75q-252 0 -409.5 152.5t-188.5 406.5h-256z" />
<glyph unicode="&#x2122;" horiz-adv-x="1288" d="M82 1268l10 73h459l-10 -73h-187v-547h-75v547h-197zM596 719l55 600l72 29l184 -469l183 469l71 -29l66 -600h-76l-47 459l-152 -394h-94l-145 390l-41 -455h-76z" />
<glyph unicode="&#xe000;" horiz-adv-x="930" d="M0 930h930v-930h-930v930z" />
<glyph unicode="&#xfb01;" horiz-adv-x="1021" d="M164 0v1159q150 178 426 197l-19 -90q-205 -18 -319 -140v-229h287l-43 -84h-242v-813h-90zM750 1290.5q0 26.5 19 46t46 19.5q29 0 48.5 -19.5t19.5 -46t-19.5 -46t-46.5 -19.5q-29 0 -48 19.5t-19 46zM774 0v893l88 39v-932h-88z" />
<glyph unicode="&#xfb02;" horiz-adv-x="1026" d="M164 0v1159q150 178 426 197l-19 -90q-205 -18 -319 -140v-229h287l-43 -84h-242v-813h-90zM774 0v1315l88 41v-1356h-88z" />
<glyph unicode="&#xfb03;" horiz-adv-x="1679" d="M1385 1290.5q0 26.5 19.5 46t46 19.5t46 -19.5t19.5 -46t-19.5 -46t-46 -19.5t-46 19.5t-19.5 46zM1407 0v893l88 39v-932h-88zM774 0v1159q150 178 426 197l-19 -90q-205 -18 -319 -140v-229h287l-43 -84h-242v-813h-90zM164 0v1159q150 178 426 197l-19 -90 q-205 -18 -319 -140v-229h287l-43 -84h-242v-813h-90z" />
<glyph unicode="&#xfb04;" horiz-adv-x="1636" d="M1385 0v1315l88 41v-1356h-88zM774 0v1159q150 178 426 197l-19 -90q-205 -18 -319 -140v-229h287l-43 -84h-242v-813h-90zM164 0v1159q150 178 426 197l-19 -90q-205 -18 -319 -140v-229h287l-43 -84h-242v-813h-90z" />
<glyph horiz-adv-x="471" />
</font>
</defs>
</svg>
